<svg width="788" height="363" viewBox="0 0 788 363" fill="none" xmlns="http://www.w3.org/2000/svg">
<path d="M0 363L788 363C788 164.917 611.593 0 394 0C176.407 0 0 164.917 0 363Z" fill="#D13834"/>
<path d="M647.28 142.999C652.286 141.275 658.042 142.159 662.352 145.832C679.665 160.548 693.868 178.497 704.573 199.173C708.501 206.776 705.528 216.117 697.94 220.039C690.235 224.1 680.996 220.995 677.073 213.406C668.355 196.549 656.323 181.34 642.297 169.42C635.791 163.884 634.979 154.111 640.53 147.599C642.399 145.417 644.748 143.871 647.28 142.999Z" fill="#ED7161"/>
<path d="M545.746 89.0363C545.85 88.6958 545.973 88.3451 546.107 88.0136C549.168 80.0139 558.122 76.0338 566.092 79.0856C585.312 86.4831 603.163 96.3437 619.18 108.444C626.007 113.591 627.327 123.254 622.196 130.135C617.049 136.962 607.333 138.298 600.505 133.151C586.819 122.799 571.515 114.349 555.016 108.009C547.367 105.072 543.388 96.7491 545.746 89.0363Z" fill="#ED7161"/>
<path d="M92.4746 212.625C92.1379 212.509 91.7917 212.373 91.4651 212.228C83.5771 208.89 79.9119 199.802 83.24 191.943C91.3037 172.994 101.781 155.498 114.433 139.913C119.815 133.269 129.518 132.288 136.216 137.656C142.86 143.038 143.855 152.794 138.473 159.438C127.65 172.755 118.671 187.755 111.76 204.023C108.557 211.564 100.1 215.251 92.4746 212.625Z" fill="#ED7161"/>
<path d="M252 80L398.5 338.5L587 159L414 363H374L252 80Z" fill="#77B255"/>
</svg>
